<svg width="234" height="96" viewBox="0 0 234 96" fill="none" xmlns="http://www.w3.org/2000/svg">
<path fill-rule="evenodd" clip-rule="evenodd" d="M225.785 2H155.467H96.3159H34.5776C23.2869 2 15.0069 10.6988 12.81 22.029C10.6131 33.3593 0.44873 84.7778 0.44873 85.8691C0.44873 90.1693 3.92094 93.6558 8.2148 93.6859H80.5062H139.656H199.423C210.713 93.6859 218.993 84.9872 221.192 73.6569C223.387 62.3266 233.551 10.9097 233.551 9.81683C233.551 5.51662 230.078 2.03014 225.785 2" fill="white"/>
<path fill-rule="evenodd" clip-rule="evenodd" d="M78.5453 58.9345C78.5453 58.9345 78.2543 60.2978 79.5276 60.4106C80.1715 60.431 80.8561 60.431 81.5755 60.431C86.1667 60.431 90.3668 58.7632 90.4609 54.6666C90.5475 51.0357 87.2789 49.9414 83.3401 49.9414H80.5609L78.5453 58.9345ZM99.3752 54.8668C99.3752 60.3004 94.7603 67.4688 78.7989 66.5865C76.9284 66.4822 75.7789 66.3295 74.0915 65.9197C68.0794 64.4572 70.1943 57.4457 70.1943 57.4457L76.3116 30.3135C79.6778 29.7715 83.4529 29.4423 87.3306 29.4423C95.8674 29.4423 101.524 32.453 101.524 38.0876C101.524 43.3634 96.3721 46.2308 92.4723 46.8806C95.5628 47.1088 99.3752 49.4663 99.3752 54.8668ZM83.7676 35.7429L82.2245 42.7331C82.2245 42.7331 81.841 44.2296 83.1483 44.2296H84.9485C89.5795 44.2296 92.7871 42.4362 92.8677 39.277C92.933 36.6709 90.6629 35.5418 87.4392 35.5418C85.9656 35.5418 84.4183 35.6411 83.7676 35.7429ZM138.404 66.6844H133.337L141.371 30.5149C144.694 29.7472 148.192 29.5953 152.243 29.6293C162.13 29.6683 166.663 33.4069 166.663 39.9238C166.663 45.8952 161.907 54.6814 148.232 54.6814C146.831 54.6814 145.626 54.5227 144.757 54.465C144.757 54.465 143.643 59.4939 142.98 62.4572C142.146 66.1771 139.7 66.6844 138.404 66.6844ZM149.396 36.0062L147.162 46.0911C147.162 46.0911 146.442 48.2349 149.013 48.2349C149.33 48.2485 149.675 48.2578 150.054 48.2578C155.802 48.2137 158.754 44.4649 158.754 40.5838C158.754 36.7654 156.116 35.8263 152.94 35.8263C151.318 35.8263 150.101 35.9027 149.396 36.0062ZM113.279 50.7046C113.279 56.4139 116.595 60.0643 122.284 60.0643C124.626 60.0643 127.185 59.6715 130.637 57.1401L129.284 63.2209C129.284 63.2209 128.908 65.2382 126.666 66.0221C124.845 66.705 122.923 67.0155 120.011 67.0155C111.898 67.0155 103.982 63.0216 103.982 51.1873C103.982 40.1175 111.076 28.866 124.769 28.866C127.456 28.866 129.355 29.2444 131.788 30.0291C135.538 31.2388 135.994 33.2697 135.745 34.4871C135.491 35.7333 134.607 38.7279 134.607 38.7279C132.247 36.6206 128.138 36.0276 125.854 36.0276C117.1 36.0276 113.279 44.8172 113.279 50.7046ZM55.4422 45.9788C52.3815 42.6602 49.1527 40.6539 46.7689 39.5103C46.7689 39.5103 45.6075 38.9343 45.001 38.6034C45.8849 36.6166 47.048 35.1974 47.048 35.1974C47.2126 34.9828 50.7357 30.8429 53.8347 32.2969C57.2195 33.8197 57.5639 40.8091 55.4422 45.9788ZM181.188 45.9788C178.127 42.6602 174.899 40.6539 172.515 39.5103C172.515 39.5103 171.353 38.9343 170.747 38.6034C171.631 36.6166 172.794 35.1974 172.794 35.1974C172.958 34.9828 176.482 30.8429 179.58 32.2969C182.965 33.8197 183.31 40.8091 181.188 45.9788Z" fill="#002A8D"/>
<path fill-rule="evenodd" clip-rule="evenodd" d="M65.9441 51.2641C62.6441 56.5348 53.6416 62.5427 51.0907 63.4436C46.1296 65.5195 42.7711 61.6698 42.4843 61.2659C41.5588 60.074 41.334 59.8221 40.8861 58.9525C40.7987 59.0968 50.4095 54.6261 53.8528 48.8421C57.5821 43.8743 57.907 34.1295 53.8342 32.2971C55.066 32.9172 57.9681 34.5834 60.5869 36.9171C63.1998 39.1321 65.458 42.0368 65.4097 41.9995C65.6854 42.3736 68.9582 46.4473 65.9441 51.2641ZM191.155 41.9995C191.431 42.3736 194.704 46.4473 191.69 51.2641C188.391 56.5348 179.387 62.5427 176.837 63.4436C171.875 65.5195 168.517 61.6698 168.23 61.2659C167.305 60.074 167.08 59.8221 166.632 58.9525C166.545 59.0968 176.156 54.6261 179.599 48.8421C183.328 43.8743 183.653 34.1295 179.58 32.2971C180.812 32.9172 183.714 34.5834 186.333 36.9171C188.946 39.1321 191.205 42.0368 191.155 41.9995Z" fill="#FF7800"/>
</svg>
